<?xml version="1.0" standalone="no"?>
<!DOCTYPE svg PUBLIC "-//W3C//DTD SVG 20010904//EN"
 "http://www.w3.org/TR/2001/REC-SVG-20010904/DTD/svg10.dtd">
<svg version="1.0" xmlns="http://www.w3.org/2000/svg"
 width="512.000000pt" height="512.000000pt" viewBox="0 0 512.000000 512.000000"
 preserveAspectRatio="xMidYMid meet">

<g transform="translate(0.000000,512.000000) scale(0.100000,-0.100000)"
fill="#000000" stroke="none">
<path d="M435 4193 c-197 -27 -373 -188 -420 -384 -22 -96 -22 -2402 0 -2498
45 -188 198 -335 390 -376 106 -22 4205 -22 4310 0 194 41 345 187 390 376 22
96 22 2402 0 2498 -40 168 -158 298 -331 363 l-59 23 -2125 1 c-1169 1 -2138
-1 -2155 -3z m4299 -221 l50 -23 -25 -23 c-13 -13 -512 -434 -1107 -935 -653
-550 -1089 -910 -1098 -907 -12 5 -2140 1791 -2193 1841 l-24 23 31 16 c17 9
48 20 69 25 22 5 930 8 2143 8 l2105 -2 49 -23z m-3790 -800 c394 -332 716
-607 716 -612 0 -8 -1422 -1211 -1440 -1218 -4 -2 -10 7 -14 20 -8 30 -8 2366
0 2396 4 13 10 22 14 20 5 -2 330 -274 724 -606z m3970 586 c8 -30 8 -2366 0
-2396 -4 -13 -10 -22 -14 -20 -24 9 -1440 1212 -1437 1221 3 11 1428 1215
1438 1216 4 1 9 -9 13 -21z m-2740 -1623 c175 -147 332 -274 348 -282 17 -9
40 -12 57 -8 18 4 160 116 373 295 294 249 345 287 358 276 8 -7 332 -280 720
-606 388 -326 716 -603 729 -616 l25 -23 -50 -23 -49 -23 -2125 0 -2125 0 -49
23 c-43 20 -48 24 -35 37 8 8 343 291 744 629 615 517 732 612 745 602 8 -7
159 -133 334 -281z"/>
</g>
</svg>
